<svg width="32" height="32" viewBox="0 0 32 32" fill="none" xmlns="http://www.w3.org/2000/svg">
<g id="spline" clip-path="url(#clip0_54_68)">
<path id="Union" d="M4 25C5.65685 25 7 26.3431 7 28C7 29.6569 5.65685 31 4 31C2.34315 31 1 29.6569 1 28C1 26.3431 2.34315 25 4 25ZM12.0195 15.5996C12.0064 15.7313 12 15.8649 12 16C12 16.5621 12.1169 17.0967 12.3262 17.582C10.5389 18.0083 8.72664 18.6874 7.70703 19.707C6.68742 20.7266 6.00833 22.5389 5.58203 24.3262C5.0967 24.1169 4.5621 24 4 24C3.86488 24 3.73129 24.0064 3.59961 24.0195C4.03878 22.1172 4.82824 19.7577 6.29297 18.293C7.7577 16.8282 10.1172 16.0388 12.0195 15.5996ZM16 13C17.6569 13 19 14.3431 19 16C19 17.6569 17.6569 19 16 19C14.3431 19 13 17.6569 13 16C13 14.3431 14.3431 13 16 13ZM26.417 7.67383C26.9025 7.88333 27.4376 8 28 8C28.1348 8 28.268 7.99252 28.3994 7.97949C27.9603 9.88198 27.1719 12.2421 25.707 13.707C24.2421 15.1719 21.882 15.9603 19.9795 16.3994C19.9925 16.268 20 16.1348 20 16C20 15.4374 19.8824 14.9026 19.6729 14.417C21.4604 13.9907 23.2732 13.3127 24.293 12.293C25.3125 11.2734 25.9907 9.46106 26.417 7.67383ZM28 1C29.6569 1 31 2.34315 31 4C31 5.65685 29.6569 7 28 7C26.3431 7 25 5.65685 25 4C25 2.34315 26.3431 1 28 1Z" fill="var(--icon-neutral, #BCBCBCFF)" stroke-width="2" stroke="var(--icon-sketch-secondary, #333333FF)"/>
<path id="Subtract" d="M12.0195 15.5996C12.0064 15.7313 12 15.8649 12 16C12 16.5621 12.1169 17.0967 12.3262 17.582C10.5389 18.0083 8.72664 18.6874 7.70703 19.707C6.68742 20.7266 6.00833 22.5389 5.58203 24.3262C5.0967 24.1169 4.5621 24 4 24C3.86488 24 3.73129 24.0064 3.59961 24.0195C4.03878 22.1172 4.82824 19.7577 6.29297 18.293C7.7577 16.8282 10.1172 16.0388 12.0195 15.5996ZM26.417 7.67383C26.9025 7.88333 27.4376 8 28 8C28.1348 8 28.268 7.99252 28.3994 7.97949C27.9603 9.88198 27.1719 12.2421 25.707 13.707C24.2421 15.1719 21.882 15.9603 19.9795 16.3994C19.9925 16.268 20 16.1348 20 16C20 15.4374 19.8824 14.9026 19.6729 14.417C21.4604 13.9907 23.2732 13.3127 24.293 12.293C25.3125 11.2734 25.9907 9.46106 26.417 7.67383Z" fill="var(--icon-accent, #18F2F2FF)"/>
<circle id="Ellipse 4" cx="4" cy="28" r="3" fill="var(--icon-neutral, #BCBCBCFF)"/>
<circle id="Ellipse 5" cx="16" cy="16" r="3" fill="var(--icon-neutral, #BCBCBCFF)"/>
<circle id="Ellipse 6" cx="28" cy="4" r="3" fill="var(--icon-neutral, #BCBCBCFF)"/>
</g>
<defs>
<clipPath id="clip0_54_68">
<rect width="32" height="32" fill="#FFFFFF"/>
</clipPath>
</defs>
</svg>
