<svg width="32" height="32" viewBox="0 0 32 32" fill="none" xmlns="http://www.w3.org/2000/svg">
<g id="assembly / ground">
<g id="Rectangle 25">
<path d="M4 16C4 14.3431 5.34315 13 7 13H25C26.6569 13 28 14.3431 28 16V26C28 27.6569 26.6569 29 25 29H7C5.34315 29 4 27.6569 4 26V16Z" fill="var(--icon-neutral, #BCBCBCFF)"/>
<path d="M7 11C7 6.02944 11.0294 2 16 2C20.9706 2 25 6.02944 25 11V13H22V11C22 7.68629 19.3137 5 16 5C12.6863 5 10 7.68629 10 11V13H7V11Z" fill="var(--icon-neutral, #BCBCBCFF)"/>
<path d="M25 13H7M25 13V11C25 6.02944 20.9706 2 16 2C11.0294 2 7 6.02944 7 11V13M25 13H22V11C22 7.68629 19.3137 5 16 5C12.6863 5 10 7.68629 10 11V13H7M25 13C26.6569 13 28 14.3431 28 16V26C28 27.6569 26.6569 29 25 29H7C5.34315 29 4 27.6569 4 26V16C4 14.3431 5.34315 13 7 13" stroke="var(--icon-stroke, #000000FF)"/>
</g>
</g>
</svg>
